PathFileType	3	(X/Y/Z)	static.trc																																																																												
DataRate	CameraRate	NumFrames	NumMarkers	Units	OrigDataRate	OrigDataStartFrame	OrigNumFrames																																																																								
100	100	12	26	mm	100	196	260																																																																								
Frame#	Time	RAcromium			LAcromium			C7			Clavicle			VSacral			RASIS			LASIS			RHip			LHip			RKneeLat			RKneeMed			LKneeMed			LKneeLat			LShankFront			RShankFront			RAnkleLat			RAnkleMed			LAnkleMed			LAnkleLat			LToeLat			LToeTip			RToeTip			RToeLat			RHeel			LHeel			T10		
		X1	Y1	Z1	X2	Y2	Z2	X3	Y3	Z3	X4	Y4	Z4	X5	Y5	Z5	X6	Y6	Z6	X7	Y7	Z7	X8	Y8	Z8	X9	Y9	Z9	X10	Y10	Z10	X11	Y11	Z11	X12	Y12	Z12	X13	Y13	Z13	X14	Y14	Z14	X15	Y15	Z15	X16	Y16	Z16	X17	Y17	Z17	X18	Y18	Z18	X19	Y19	Z19	X20	Y20	Z20	X21	Y21	Z21	X22	Y22	Z22	X23	Y23	Z23	X24	Y24	Z24	X25	Y25	Z25	X26	Y26	Z26
196	1.95	890.25714	1560.1425	-452.69168	873.92993	1561.5023	-701.60046	846.45013	1583.7284	-571.05035	999.29974	1481.7236	-587.67584	794.48322	1086.8639	-557.18286	970.58325	1083.459	-432.16299	976.73181	1077.6509	-700.09436	901.45496	993.91565	-392.18713	895.41473	985.31036	-745.99725	907.22473	533.44293	-413.29953	882.29077	520.92737	-543.8739	901.96179	536.89392	-605.84796	901.4397	546.18982	-726.15308	928.07471	438.21228	-689.46417	949.83832	449.02679	-466.72037	833.25757	83.059105	-420.74875	855.01837	92.339439	-504.3634	853.80975	96.537766	-626.84058	819.71381	74.401161	-705.06213	973.31659	19.35927	-745.36658	1042.9319	23.993095	-679.74341	1044.5541	21.166653	-457.09286	972.66559	19.746531	-379.862	747.27368	10.503419	-466.20413	747.9585	9.1209869	-650.77539	787.55756	1291.7054	-565.63135
197	1.96	890.35284	1560.1055	-452.65872	874.05896	1561.4597	-701.58813	846.55188	1583.7139	-571.04791	999.43237	1481.7273	-587.62671	794.61426	1086.8564	-557.20312	970.56921	1083.4847	-432.20932	976.89215	1077.6527	-700.06708	901.53351	993.90344	-392.19293	895.59717	985.25391	-745.95752	907.30511	533.4455	-413.25623	882.42303	520.9306	-543.87488	902.08789	536.89587	-605.7973	901.44537	546.18506	-726.25818	928.12256	438.44046	-689.43475	949.8147	448.97742	-466.75644	833.39539	83.057922	-420.58514	854.88971	92.577995	-504.39578	853.99884	96.47068	-626.74164	819.73126	74.401405	-705.05072	973.31299	19.339916	-745.37909	1042.7939	23.66198	-679.90778	1044.5768	21.121454	-457.11984	972.63995	19.743559	-379.86343	747.27179	10.502441	-466.21143	747.95319	9.1381989	-650.76398	787.65344	1291.7104	-565.62604
198	1.97	890.44183	1560.1174	-452.63763	874.17224	1561.4459	-701.59436	846.67657	1583.7045	-571.01013	999.50952	1481.707	-587.61658	794.75983	1086.847	-557.22552	970.6676	1083.4038	-432.1651	976.96313	1077.6393	-700.08093	901.62854	993.91388	-392.23138	895.67059	985.28925	-746.02802	907.37573	533.47595	-413.30768	882.414	520.94116	-543.88831	902.1521	536.8963	-605.78705	901.49164	546.16406	-726.284	928.12982	438.4184	-689.44373	949.94073	449.01416	-466.8262	833.25061	83.031662	-420.77066	854.87842	92.499443	-504.43732	853.85046	96.573715	-626.84174	819.77002	74.400925	-705.04156	973.29291	19.447863	-745.31683	1042.9265	23.946114	-679.6792	1044.5402	21.139242	-457.17166	972.67584	19.787159	-379.88089	747.22308	10.564016	-466.22562	747.94592	9.1239681	-650.76495	787.79517	1291.6683	-565.65503
199	1.98	890.54114	1560.1069	-452.62341	874.30084	1561.432	-701.55634	846.78186	1583.7047	-570.98853	999.63373	1481.6914	-587.547	794.84723	1086.8572	-557.23102	970.85095	1083.4073	-432.1813	977.10461	1077.653	-700.1618	901.72668	993.87762	-392.26187	895.81744	985.25879	-746.02637	907.41943	533.44128	-413.34656	882.47693	520.8631	-543.91187	902.2746	536.99164	-605.72528	901.5083	546.19263	-726.30273	928.17084	438.41461	-689.46216	950.0155	449.01215	-466.79013	833.36652	83.054016	-420.61133	854.88409	92.499664	-504.49347	853.87799	96.524117	-626.87592	819.78607	74.375061	-705.05298	973.33539	19.349926	-745.35559	1042.9083	23.90118	-679.66956	1044.5533	21.120743	-457.08759	972.65253	19.766996	-379.92081	747.24707	10.536502	-466.23645	747.96399	9.1527119	-650.77472	787.91223	1291.6832	-565.66174
200	1.99	890.65533	1560.0953	-452.54935	874.41687	1561.4268	-701.52045	846.89948	1583.7113	-570.98871	999.74377	1481.6584	-587.5542	794.96777	1086.8722	-557.26086	970.95184	1083.4011	-432.18521	977.24646	1077.6476	-700.1604	901.81836	993.85889	-392.27689	895.8877	985.26575	-746.07385	907.55774	533.49432	-413.36533	882.55133	520.90027	-543.94556	902.44617	536.94244	-605.74994	901.56683	546.14032	-726.29016	928.1936	438.37979	-689.46643	950.08569	448.98904	-466.89636	833.27716	83.050117	-420.77847	854.91071	92.463333	-504.4632	853.86267	96.563316	-626.83209	819.75635	74.407181	-705.03802	973.33362	19.360607	-745.34454	1042.7596	23.639254	-679.88849	1044.5669	21.100428	-457.11981	972.58887	19.775335	-379.94653	747.21765	10.556592	-466.24213	747.93951	9.1566105	-650.76514	788.0238	1291.6935	-565.66193
201	2	890.76904	1560.08	-452.54498	874.57513	1561.4448	-701.51154	847.03204	1583.7173	-570.94415	999.85645	1481.7081	-587.51013	795.09485	1086.8893	-557.26379	970.99884	1083.3607	-432.24533	977.31769	1077.6433	-700.19873	901.93298	993.83789	-392.29147	895.99884	985.24243	-746.09131	907.47968	533.42432	-413.4248	882.63818	520.88989	-543.93188	902.2547	536.89349	-605.89471	901.59296	546.17511	-726.36365	928.27942	438.38214	-689.49353	950.12683	449.00748	-466.94089	833.28033	83.057106	-420.76926	854.90979	92.451042	-504.47125	853.91174	96.529739	-626.85638	819.78357	74.403481	-705.06329	973.3136	19.371578	-745.35828	1042.8063	23.658411	-679.90747	1044.5646	21.100143	-457.10681	972.729	19.799664	-379.9407	747.25659	10.549905	-466.21829	747.98956	9.1766109	-650.79358	788.09497	1291.7015	-565.65076
202	2.01	890.88556	1560.0538	-452.51541	874.69543	1561.4512	-701.48602	847.10522	1583.7335	-570.91162	999.97363	1481.6768	-587.48059	795.19714	1086.9004	-557.27246	971.16827	1083.4197	-432.28918	977.43433	1077.644	-700.21173	902.07709	993.84039	-392.32803	896.07648	985.24976	-746.11749	907.59552	533.45337	-413.42883	882.65906	520.90753	-543.94507	902.34424	536.94946	-605.854	901.6792	546.16931	-726.38019	928.28955	438.41019	-689.50305	950.1452	449.01846	-466.91928	833.29102	83.063896	-420.77399	854.9129	92.555061	-504.41229	854.13361	96.694489	-626.80554	819.77924	74.430153	-705.03284	973.00183	19.306284	-745.51617	1042.7771	23.620335	-679.84106	1044.5912	21.10339	-457.06564	972.68079	19.787245	-379.93207	747.26514	10.547194	-466.22815	747.98517	9.1419144	-650.8103	788.23334	1291.7235	-565.66522
203	2.02	890.99164	1560.0431	-452.48672	874.85913	1561.4635	-701.47388	847.23315	1583.7242	-570.91425	1000.1204	1481.6417	-587.43842	795.33026	1086.9059	-557.28503	971.34717	1083.3606	-432.22906	977.40796	1077.6533	-700.35999	902.04364	993.64246	-392.28394	896.17285	985.26636	-746.14581	907.62628	533.48584	-413.45908	882.7157	520.96411	-543.93463	902.40326	536.91583	-605.84247	901.73718	546.1626	-726.33105	928.31293	438.39276	-689.50586	950.20416	448.98349	-466.92697	833.44476	83.064651	-420.64478	854.94299	92.471313	-504.50308	853.90533	96.560471	-626.8479	819.8075	74.403358	-705.03906	973.31567	19.353306	-745.33844	1042.7777	23.572773	-679.85095	1044.5477	21.082788	-457.12201	972.66785	19.770319	-379.92694	747.23706	10.604827	-466.21182	747.96552	9.1513739	-650.78528	788.3949	1291.7051	-565.70435
204	2.03	891.10394	1560.0051	-452.45428	875.01508	1561.4854	-701.44092	847.35376	1583.7246	-570.867	1000.2101	1481.6274	-587.46527	795.44318	1086.9375	-557.32349	971.43811	1083.3618	-432.32095	977.6413	1077.6349	-700.28723	902.29663	993.8421	-392.3819	896.23108	985.3053	-746.15436	907.68365	533.47717	-413.47375	882.80573	520.88831	-543.95331	902.37488	536.85742	-605.88519	901.78143	546.14099	-726.36041	928.37622	438.41647	-689.56384	950.23413	448.97855	-466.95312	833.33374	83.081413	-420.79596	854.94983	92.440536	-504.49341	854.22229	96.722	-626.76935	819.79578	74.453743	-705.05396	973.00903	19.306473	-745.49799	1042.9579	23.84103	-679.68158	1044.5529	21.046482	-457.10815	972.6109	19.749107	-379.89084	747.23676	10.627479	-466.2236	747.9649	9.190258	-650.77295	788.51154	1291.6996	-565.72644
205	2.04	891.21832	1559.9856	-452.42761	875.164	1561.4884	-701.4184	847.54578	1583.7269	-570.84198	1000.3649	1481.6156	-587.39044	795.591	1086.9232	-557.32452	971.55939	1083.399	-432.35931	977.73895	1077.6334	-700.28809	902.42255	993.84827	-392.37866	896.38733	985.27051	-746.17206	907.70142	533.4715	-413.50479	882.8252	520.94446	-543.95392	902.47473	536.99158	-605.91913	901.76843	546.19507	-726.40112	928.40686	438.4079	-689.54089	950.26178	449.00217	-466.93881	833.47034	83.114426	-420.63785	854.98047	92.498962	-504.50623	853.9256	96.598061	-626.86438	819.78564	74.468719	-705.08331	973.3053	19.357372	-745.41626	1042.8081	23.571003	-679.78613	1044.5166	21.036222	-457.15396	972.70435	19.769903	-379.91653	747.29791	10.571065	-466.23911	747.99182	9.1965351	-650.79517	788.59241	1291.7009	-565.72772
206	2.05	891.31787	1559.9528	-452.40186	875.29138	1561.5122	-701.3913	847.67883	1583.7263	-570.79865	1000.48	1481.5909	-587.35706	795.72858	1086.9259	-557.33521	971.54926	1083.3245	-432.41711	977.86621	1077.6128	-700.2713	902.52734	993.86359	-392.4053	896.49121	985.25507	-746.17578	907.79999	533.44043	-413.48175	882.88501	520.89581	-543.99951	902.41888	536.8335	-605.95465	901.87653	546.16284	-726.36407	928.43024	438.39301	-689.5636	950.36853	449.073	-467.08746	833.341	83.071274	-420.79276	854.94965	92.512466	-504.4744	853.9444	96.60598	-626.8399	819.77515	74.472198	-705.10748	973.28979	19.355522	-745.42786	1042.7627	23.577417	-679.84387	1044.5245	21.020821	-457.17047	972.68951	19.771101	-379.86215	747.22418	10.65131	-466.23383	748.00018	9.2235737	-650.78864	788.73254	1291.7312	-565.73889
207	2.06	891.45789	1559.9294	-452.36975	875.47949	1561.5042	-701.34192	847.82434	1583.7227	-570.7403	1000.6275	1481.584	-587.32385	795.82281	1086.9561	-557.34088	971.74615	1083.3242	-432.39047	977.97638	1077.5851	-700.31921	902.64545	993.86188	-392.41898	896.57043	985.27826	-746.19586	907.80603	533.42249	-413.48639	882.75952	520.94281	-544.01868	902.60162	536.96484	-605.86707	901.87939	546.15442	-726.39929	928.43469	438.41122	-689.59094	950.35822	449.03046	-467.03534	833.448	83.100502	-420.6423	855.04279	92.392059	-504.48804	853.92633	96.544327	-626.85278	819.78442	74.461647	-705.10791	973.31085	19.349245	-745.38593	1042.838	23.631994	-679.86682	1044.5669	21.060526	-457.10739	972.758	19.746162	-379.83655	747.24585	10.660683	-466.23212	748.01276	9.2071495	-650.78595	788.78668	1291.7255	-565.68713
